<?xml version="1.0" standalone="no"?>
<!DOCTYPE svg PUBLIC "-//W3C//DTD SVG 20010904//EN"
 "http://www.w3.org/TR/2001/REC-SVG-20010904/DTD/svg10.dtd">
<svg version="1.0" xmlns="http://www.w3.org/2000/svg"
 width="512.000000pt" height="512.000000pt" viewBox="0 0 512.000000 512.000000"
 preserveAspectRatio="xMidYMid meet">
<metadata>
Created by potrace 1.14, written by Peter Selinger 2001-2017
</metadata>
<g transform="translate(0.000000,512.000000) scale(0.100000,-0.100000)"
fill="#000000" stroke="none">
<path d="M2486 4517 c-39 -89 -83 -191 -98 -227 -16 -36 -38 -85 -48 -110 -11
-25 -32 -76 -49 -115 -71 -169 -151 -369 -151 -380 0 -13 132 -74 316 -147
l101 -40 124 50 c68 28 163 68 211 90 l87 41 -38 98 c-102 260 -373 903 -381
903 -3 0 -36 -73 -74 -163z m128 -592 c50 -123 50 -124 -26 -147 -47 -14 -111
8 -116 41 -4 26 80 233 90 223 4 -4 27 -56 52 -117z"/>
<path d="M1050 4065 c0 -10 413 -1001 421 -1009 5 -6 17 -5 31 2 13 6 91 39
173 72 83 34 166 68 186 76 35 14 39 22 123 226 48 116 83 215 79 219 -8 8
-345 149 -698 292 -281 114 -315 127 -315 122z m623 -519 c31 -14 60 -32 63
-40 12 -30 -27 -86 -77 -111 l-48 -25 -15 22 c-9 12 -16 28 -16 35 0 7 -4 21
-10 31 -15 27 -50 121 -50 136 0 15 37 4 153 -48z"/>
<path d="M3850 3985 c-113 -47 -214 -89 -225 -95 -11 -5 -72 -30 -135 -55 -63
-26 -131 -53 -150 -61 -19 -9 -91 -39 -160 -68 -112 -47 -125 -56 -122 -76 1
-13 37 -106 79 -208 85 -206 78 -197 213 -253 41 -17 93 -39 115 -49 79 -37
174 -65 183 -55 5 6 49 105 97 220 48 116 93 224 100 240 16 35 138 331 188
458 20 48 32 87 29 87 -4 0 -99 -39 -212 -85z m-278 -472 c-51 -125 -59 -136
-96 -129 -38 8 -69 37 -91 87 -18 38 -18 40 1 54 10 8 24 15 29 15 6 0 48 15
95 34 47 18 88 32 92 30 3 -2 -10 -43 -30 -91z"/>
<path d="M1095 2845 c-176 -74 -333 -141 -350 -149 -16 -8 -86 -38 -155 -67
-69 -29 -131 -57 -138 -64 -10 -9 28 -29 185 -95 239 -100 678 -280 750 -309
l53 -21 24 48 c58 114 157 368 152 388 -3 12 -42 108 -87 213 -59 140 -85 191
-97 191 -10 -1 -161 -61 -337 -135z m244 -247 c12 -41 12 -48 -7 -91 -21 -46
-21 -46 -54 -35 -18 6 -37 14 -43 18 -5 4 -21 11 -33 15 -13 4 -49 18 -80 32
l-56 24 95 40 c52 22 101 43 109 48 27 15 54 -4 69 -51z"/>
<path d="M3592 2802 c-109 -266 -108 -215 -12 -450 46 -110 88 -203 94 -205 6
-2 61 16 121 40 165 67 879 364 883 368 7 6 -75 44 -316 146 -371 157 -669
279 -684 279 -7 0 -43 -74 -86 -178z m346 -195 c58 -23 99 -44 94 -49 -7 -7
-218 -98 -227 -98 -6 0 -35 82 -35 100 0 11 7 37 16 59 18 45 6 46 152 -12z"/>
<path d="M1467 2063 c-8 -13 -403 -965 -411 -991 l-7 -22 48 19 c50 20 277
114 328 136 17 7 66 27 110 44 44 18 89 36 100 41 11 6 110 48 220 94 118 50
201 90 203 99 7 36 -150 400 -182 420 -22 15 -341 149 -383 161 -12 4 -24 3
-26 -1z m197 -335 c36 -17 49 -30 65 -70 18 -45 19 -49 3 -57 -38 -20 -215
-91 -219 -87 -3 3 21 72 46 131 5 11 17 39 26 63 10 23 22 42 26 42 5 0 29
-10 53 -22z"/>
<path d="M3580 2046 c-109 -39 -344 -137 -357 -149 -17 -17 -163 -381 -163
-407 0 -15 11 -25 38 -36 20 -9 51 -22 67 -29 124 -55 898 -375 901 -373 5 6
-325 806 -404 980 l-17 37 -65 -23z m-39 -365 c35 -77 69 -164 65 -168 -4 -5
-84 27 -169 67 -64 30 -66 32 -56 58 20 55 33 72 72 91 48 24 58 19 88 -48z"/>
<path d="M2360 1546 c-96 -40 -187 -79 -201 -87 l-26 -14 107 -260 c59 -143
113 -271 118 -285 6 -14 30 -70 53 -125 46 -111 141 -328 146 -334 2 -2 5 -2
8 1 7 7 131 302 207 493 32 83 65 164 73 180 43 98 125 327 120 335 -7 12 -22
18 -237 106 -86 35 -165 64 -175 63 -10 0 -97 -33 -193 -73z m255 -213 c19 -9
35 -23 35 -30 0 -17 -68 -186 -84 -208 -11 -15 -16 -9 -39 47 -34 80 -57 147
-57 164 0 18 48 43 82 44 15 0 43 -8 63 -17z"/>
</g>
</svg>
